<svg xmlns="http://www.w3.org/2000/svg" width="122.879" height="116.53" viewBox="0 0 122.879 116.53">
  <g id="Grupo_205" data-name="Grupo 205" transform="translate(-26 18.765)">
    <path id="Trazado_50" data-name="Trazado 50" d="M-1033.648-51.041c7.828-10,21.333-18.74,34.807-21.329s33.866,1.988,36.952,3.51,12.516,4.611,19.333,9.381,17.512,18,18.1,26.294,1.279,17.059,0,22.951-1.016,15.179-8.552,28.687S-953.654,38.863-961.888,41.6s-26.342,1.983-36.952,0-31.881-10.812-39.137-25.519-9.867-28.676-8.108-35.782S-1041.477-41.04-1033.648-51.041Z" transform="translate(1072.615 54.383)" fill="#e41a26"/>
    <g id="Grupo_82" data-name="Grupo 82" transform="translate(-2427.633 -4420.186)">
      <g id="Grupo_18" data-name="Grupo 18" transform="translate(2467.544 4449.643)">
        <g id="Trazado_1" data-name="Trazado 1" transform="translate(0 0)">
          <g id="Grupo_25" data-name="Grupo 25">
            <path id="Trazado_18" data-name="Trazado 18" d="M2476.689,4442.946a2.307,2.307,0,0,0-.6-1.668,10.673,10.673,0,0,0-2.4-.242,17.166,17.166,0,0,0-2.4.17,39.014,39.014,0,0,0-.386,5.225l4.741-.145a4.1,4.1,0,0,0,.726-1.6,6.44,6.44,0,0,0,.314-1.741m3.072-.459a8.959,8.959,0,0,1-1.112,3.967,8.466,8.466,0,0,1-.412.75,3.5,3.5,0,0,1-2.468,1.331q-.557.072-2.9.073a8.209,8.209,0,0,0-2.2.242,18.51,18.51,0,0,0-.339,3.822,15.292,15.292,0,0,1-.048,1.621,1.1,1.1,0,0,1-1.21.944l-.362-.1a1.831,1.831,0,0,1-1.137-.556q-.025-.46-.024-.968,0-1.331.508-5.563c-.081-.032-.121-.063-.121-.1q0-.023.072-.1a.136.136,0,0,0,.049-.144q.073-1.742.169-3.46a19.9,19.9,0,0,1,.509-3.411.613.613,0,0,1-.146-.362.759.759,0,0,1,.278-.448,1.619,1.619,0,0,0,.327-.4,10.5,10.5,0,0,1,4.813-.991,15.372,15.372,0,0,1,2.346.121q.024,0,.653.169a3.218,3.218,0,0,1,2.444,1.718,5.242,5.242,0,0,1,.314,1.838" transform="translate(-2467.544 -4438.643)" fill="#fff"/>
          </g>
        </g>
        <g id="Trazado_2" data-name="Trazado 2" transform="translate(10.424 5.255)">
          <g id="Grupo_26" data-name="Grupo 26">
            <path id="Trazado_19" data-name="Trazado 19" d="M2541.966,4479.01c-.175-.013-.345-.02-.507-.02a18.691,18.691,0,0,0-2.516.369,1.637,1.637,0,0,0-.669,1.23,2.386,2.386,0,0,0,1.461.45,8.09,8.09,0,0,0,2.171-.45Zm2.516-.994q0,1.116-.183,2.922-.223,2.253-.264,2.943a5.544,5.544,0,0,0-.689.07,5.521,5.521,0,0,1-.751.071,1.515,1.515,0,0,1-.812-.2q-.022-.386-.061-1.136a7.253,7.253,0,0,1-2.375.406,4.135,4.135,0,0,1-2.566-.733q-.964-.734-.964-1.364a3.7,3.7,0,0,1,1.623-2.932q1.826-.529,2.252-.632a8.271,8.271,0,0,1,2.313-.223v-.2a6.451,6.451,0,0,0-.061-1.157,1.013,1.013,0,0,0-.649-.853,1.37,1.37,0,0,0-.487-.061q-.223,0-.66.042t-.659.04a1.559,1.559,0,0,1-1.381-.649,2.311,2.311,0,0,1,.143-.406.671.671,0,0,1,.345-.284.6.6,0,0,1,.355-.314,2.58,2.58,0,0,0,.375-.192q1.257-.1,1.7-.1a3.425,3.425,0,0,1,2.516.812,2.511,2.511,0,0,1,.345.446,8.618,8.618,0,0,1,.588,3.692" transform="translate(-2535.819 -4473.066)" fill="#fff"/>
          </g>
        </g>
        <g id="Trazado_3" data-name="Trazado 3" transform="translate(20.675 6.199)">
          <g id="Grupo_27" data-name="Grupo 27">
            <path id="Trazado_20" data-name="Trazado 20" d="M2609.261,4492.329h-.177c-.264,0-.434.06-.513.177l-2.644-.117a4.108,4.108,0,0,1-2.427-.75,1.78,1.78,0,0,1,.71-.73q.453-.257.907-.493l.177-9.018-.158-.454a4.5,4.5,0,0,1-1.026.256,1.082,1.082,0,0,1-.67-.266,1.339,1.339,0,0,0-.473-.286,8.559,8.559,0,0,0,.592-.691q.216-.059,1.2-.433a3.592,3.592,0,0,1,1.224-.276,1.072,1.072,0,0,1,1.085.552l.335.849v1.5q0,1.164-.039,3.483t-.04,3.482q0,.768.02,1.48a2.892,2.892,0,0,0,.927.157,2.092,2.092,0,0,1,.889.237Z" transform="translate(-2602.967 -4479.247)" fill="#fff"/>
          </g>
        </g>
        <g id="Trazado_4" data-name="Trazado 4" transform="translate(26.851 6.199)">
          <g id="Grupo_28" data-name="Grupo 28">
            <path id="Trazado_21" data-name="Trazado 21" d="M2649.714,4492.329h-.177c-.264,0-.434.06-.513.177l-2.645-.117a4.11,4.11,0,0,1-2.427-.75,1.782,1.782,0,0,1,.711-.73q.453-.257.907-.493l.177-9.018-.157-.454a4.506,4.506,0,0,1-1.026.256,1.084,1.084,0,0,1-.671-.266,1.335,1.335,0,0,0-.473-.286,8.5,8.5,0,0,0,.591-.691q.216-.059,1.2-.433a3.593,3.593,0,0,1,1.224-.276,1.072,1.072,0,0,1,1.086.552l.335.849v1.5q0,1.164-.039,3.483t-.04,3.482q0,.768.02,1.48a2.893,2.893,0,0,0,.927.157,2.092,2.092,0,0,1,.889.237Z" transform="translate(-2643.42 -4479.247)" fill="#fff"/>
          </g>
        </g>
        <g id="Trazado_5" data-name="Trazado 5" transform="translate(34.241 4.047)">
          <g id="Grupo_29" data-name="Grupo 29">
            <path id="Trazado_22" data-name="Trazado 22" d="M2698.274,4471.182q-.318-1.411-1.04-4.177l-.511-.177-1.886,5.059q1.163-.193,3.437-.705m3.243,5.146a1.243,1.243,0,0,0-.246.476c-.083.2-.183.3-.3.3h-.281a1.423,1.423,0,0,1-.582-.124,1.707,1.707,0,0,0-.563-.142q-.089-.676-.388-1.92-.3-1.332-.387-1.938a3.286,3.286,0,0,0-.494-.035,13.755,13.755,0,0,0-1.551.158,24.276,24.276,0,0,1-2.5.511,7.649,7.649,0,0,0-.458,1.675,4.274,4.274,0,0,1-.6,1.621.581.581,0,0,1-.265.053.473.473,0,0,1-.246-.053l-.828-.176a25.7,25.7,0,0,1,1.3-5.077q.97-2.449,1.921-4.9a1.035,1.035,0,0,0-.292-.246.653.653,0,0,1-.291-.353,1.492,1.492,0,0,1,.793-.828.282.282,0,0,0,.176.069.431.431,0,0,0,.239-.122.439.439,0,0,1,.255-.124,5.818,5.818,0,0,1,3.032.564,10.007,10.007,0,0,1,.969,2.627q.265,1.373.547,2.767Z" transform="translate(-2691.825 -4465.153)" fill="#fff"/>
          </g>
        </g>
        <g id="Trazado_6" data-name="Trazado 6" transform="translate(46.356 1.866)">
          <g id="Grupo_30" data-name="Grupo 30">
            <path id="Trazado_23" data-name="Trazado 23" d="M2778.9,4455.012a2.85,2.85,0,0,0-.405-1.24,1.669,1.669,0,0,0-1.6-1,4.523,4.523,0,0,0-1.43.286q-.715.238-1.405.476l-.191,3.765a6.235,6.235,0,0,0,2.312.643,4.887,4.887,0,0,0,2.549-2.334,1.248,1.248,0,0,0,.167-.6m2.86-.144a4.836,4.836,0,0,1-1.811,3.409,5.224,5.224,0,0,1-3.5,1.714,8.428,8.428,0,0,1-1.263-.118q-1.049-.168-1.263-.191-.071.833-.071,1.906,0,.691.048,2.061t.047,2.06a17.8,17.8,0,0,1-.119,2.218l-.691,1.072c-.508-.1-.826-.159-.954-.191a1.193,1.193,0,0,1-.738-.6h-.263v-4.409a98.257,98.257,0,0,1,.571-12.081,1.044,1.044,0,0,0,.452-.262,1.572,1.572,0,0,1,.4-.357h.047a2.611,2.611,0,0,0,.38-.036,2.744,2.744,0,0,1,.358-.036c.3,0,.483.111.546.334a7.977,7.977,0,0,1,2.83-.5,4.967,4.967,0,0,1,3.793,1.288,3.942,3.942,0,0,1,1.2,2.716" transform="translate(-2771.179 -4450.865)" fill="#fff"/>
          </g>
        </g>
        <g id="Trazado_7" data-name="Trazado 7" transform="translate(54.622 9.686)">
          <g id="Grupo_31" data-name="Grupo 31">
            <path id="Trazado_24" data-name="Trazado 24" d="M2835.148,4502.622q-.782,3.5-.906,3.955a14.478,14.478,0,0,1-1.544,3.727q-.227.352-.721.989a2.375,2.375,0,0,1-.516.371,4.967,4.967,0,0,1-2.78.824q-.33,0-.618-.021a2.406,2.406,0,0,1-1.977-1.626,16.3,16.3,0,0,1-.638-2.656,7.472,7.472,0,0,1-.124-1.339,5.977,5.977,0,0,1,.31-1.977,4.8,4.8,0,0,1,1.771-.454q.1.391.31,3.068a5.343,5.343,0,0,0,.906,2.884,1.111,1.111,0,0,0,.576.144,5.368,5.368,0,0,0,1.236-.268,10.261,10.261,0,0,0,1.627-3.583,31.224,31.224,0,0,0,.66-3.914,5.145,5.145,0,0,1,1.667-.659.781.781,0,0,1,.762.536" transform="translate(-2825.323 -4502.086)" fill="#fff"/>
          </g>
        </g>
        <g id="Trazado_8" data-name="Trazado 8" transform="translate(66.631 3.213)">
          <g id="Grupo_32" data-name="Grupo 32">
            <path id="Trazado_25" data-name="Trazado 25" d="M2911.577,4463.2a1.881,1.881,0,0,0-.493-1.36,8.7,8.7,0,0,0-1.95-.2,14.243,14.243,0,0,0-1.95.138,31.812,31.812,0,0,0-.316,4.256l3.863-.118a3.351,3.351,0,0,0,.59-1.3,5.276,5.276,0,0,0,.256-1.418m2.5-.375a7.3,7.3,0,0,1-.906,3.232q-.152.313-.335.611a2.862,2.862,0,0,1-2.011,1.083q-.453.059-2.365.059a6.7,6.7,0,0,0-1.793.2,15.093,15.093,0,0,0-.276,3.113c.013.342-.227,3.47-.265,4.009-.105.512-.208,1.028-.76,1.028l-.67-.045c-.46-.092-.558-.5-.716-.715-.013-.25.146-3.232.146-3.508q0-1.084.414-4.533c-.066-.025-.1-.051-.1-.078s.02-.041.059-.079a.115.115,0,0,0,.039-.12q.06-1.417.138-2.817a16.159,16.159,0,0,1,.413-2.778.5.5,0,0,1-.118-.3.618.618,0,0,1,.227-.365,1.331,1.331,0,0,0,.265-.324,8.531,8.531,0,0,1,3.922-.808,12.628,12.628,0,0,1,1.911.1c.012,0,.189.046.532.138a2.625,2.625,0,0,1,1.99,1.4,4.287,4.287,0,0,1,.256,1.5" transform="translate(-2903.981 -4459.686)" fill="#fff"/>
          </g>
        </g>
        <g id="Trazado_9" data-name="Trazado 9" transform="translate(75.222 7.624)">
          <g id="Grupo_33" data-name="Grupo 33">
            <path id="Trazado_26" data-name="Trazado 26" d="M2967,4495.1c-.193-.015-.378-.022-.556-.023a20.471,20.471,0,0,0-2.757.406,1.8,1.8,0,0,0-.735,1.347,2.609,2.609,0,0,0,1.6.493,8.829,8.829,0,0,0,2.38-.493Zm2.756-1.09q0,1.222-.2,3.2-.245,2.467-.29,3.224a6.119,6.119,0,0,0-.756.078,6.194,6.194,0,0,1-.823.079,1.653,1.653,0,0,1-.89-.224q-.023-.422-.067-1.245a7.916,7.916,0,0,1-2.6.445,4.527,4.527,0,0,1-2.813-.8q-1.057-.8-1.056-1.494a4.053,4.053,0,0,1,1.779-3.213q2-.579,2.469-.692a9.041,9.041,0,0,1,2.535-.245v-.223a7,7,0,0,0-.068-1.267,1.109,1.109,0,0,0-.712-.935,1.473,1.473,0,0,0-.533-.066q-.245,0-.723.043c-.319.03-.559.044-.723.044a1.709,1.709,0,0,1-1.512-.711,2.337,2.337,0,0,1,.156-.445.736.736,0,0,1,.378-.312.655.655,0,0,1,.389-.344,2.579,2.579,0,0,0,.411-.212q1.378-.11,1.868-.11a3.76,3.76,0,0,1,2.757.889,2.785,2.785,0,0,1,.378.489,9.446,9.446,0,0,1,.645,4.047" transform="translate(-2960.257 -4488.58)" fill="#fff"/>
          </g>
        </g>
        <g id="Trazado_10" data-name="Trazado 10" transform="translate(86.312 5.717)">
          <g id="Grupo_34" data-name="Grupo 34">
            <path id="Trazado_27" data-name="Trazado 27" d="M3041.642,4484.027a2.68,2.68,0,0,1-.122.852,3.673,3.673,0,0,1-.994,1.572,2.852,2.852,0,0,1-1.563.863h-.324a6.88,6.88,0,0,1-5.742-3.023c.013-.163.243-.386.689-.67a.886.886,0,0,0,.183.021,2.255,2.255,0,0,0,.446-.061,2.373,2.373,0,0,1,.446-.061.754.754,0,0,1,.569.3l.406.527a4.676,4.676,0,0,0,2.414,1.278,1.4,1.4,0,0,0,.8-.547,1.516,1.516,0,0,0,.314-.914,1.236,1.236,0,0,0-.3-.862,4.092,4.092,0,0,0-1.217-.761,7.267,7.267,0,0,1-1.381-.71,11.954,11.954,0,0,1-1.278-1.1,2.5,2.5,0,0,1-.67-1.5q.528-1.542,3.084-2.617.3-.142.893-.365a6.767,6.767,0,0,1,1.644-.163,1.58,1.58,0,0,1,1.541.69,1.347,1.347,0,0,0-.152.579,2.616,2.616,0,0,1-.091.559,3.043,3.043,0,0,0-1.035-.184,6.678,6.678,0,0,0-3.653,1.563,4.555,4.555,0,0,0,1.867,1.562q1.948,1.034,2.171,1.218a2.363,2.363,0,0,1,1.055,1.948" transform="translate(-3032.897 -4476.091)" fill="#fff"/>
          </g>
        </g>
      </g>
    </g>
  </g>
</svg>
